<?xml version="1.0" encoding="UTF-8"?>
<!DOCTYPE svg PUBLIC "-//W3C//DTD SVG 1.1//EN" "http://www.w3.org/Graphics/SVG/1.1/DTD/svg11.dtd">
<svg xmlns="http://www.w3.org/2000/svg" version="1.1" width="512px" height="512px" style="shape-rendering:geometricPrecision; text-rendering:geometricPrecision; image-rendering:optimizeQuality; fill-rule:evenodd; clip-rule:evenodd" xmlns:xlink="http://www.w3.org/1999/xlink">
<g><path style="opacity:0.964" fill="#eb4e24" d="M 315.5,60.5 C 314.686,58.369 314.186,56.0356 314,53.5C 304.895,45.3744 295.729,37.3744 286.5,29.5C 287.77,12.0798 297.104,4.91314 314.5,8C 329.161,15.6237 332.661,26.7904 325,41.5C 322.572,44.5976 319.572,46.931 316,48.5C 315.501,52.4862 315.334,56.4862 315.5,60.5 Z M 304.5,22.5 C 313.818,22.6546 315.818,26.488 310.5,34C 301.096,34.141 299.096,30.3076 304.5,22.5 Z"/></g>
<g><path style="opacity:0.968" fill="#ec5523" d="M 286.5,29.5 C 295.729,37.3744 304.895,45.3744 314,53.5C 314.186,56.0356 314.686,58.369 315.5,60.5C 315.5,65.5 315.5,70.5 315.5,75.5C 327.284,76.4843 338.117,80.151 348,86.5C 348.483,85.552 348.649,84.552 348.5,83.5C 353.154,88.1485 358.154,92.4819 363.5,96.5C 367.09,101.936 370.923,107.27 375,112.5C 383.967,127.844 387.467,144.178 385.5,161.5C 386.295,157.406 384.962,154.239 381.5,152C 378.354,149.688 375.354,147.188 372.5,144.5C 371.571,145.689 371.238,147.022 371.5,148.5C 370.151,140.277 367.651,132.277 364,124.5C 363.667,130.5 363.333,136.5 363,142.5C 356.917,148.424 350.417,153.757 343.5,158.5C 340.401,154.466 336.734,151.132 332.5,148.5C 337.688,144.304 342.855,139.971 348,135.5C 348.832,125.151 348.666,114.817 347.5,104.5C 338.161,97.2479 327.661,92.5812 316,90.5C 315.517,91.448 315.351,92.448 315.5,93.5C 308.843,88.1754 302.51,82.5087 296.5,76.5C 297.568,75.5655 298.901,75.2322 300.5,75.5C 300.832,66.4754 300.498,57.4754 299.5,48.5C 291.44,44.7133 287.107,38.38 286.5,29.5 Z"/></g>
<g><path style="opacity:0.974" fill="#ed5a22" d="M 296.5,76.5 C 302.51,82.5087 308.843,88.1754 315.5,93.5C 315.5,104.167 315.5,114.833 315.5,125.5C 314.691,127.292 314.191,129.292 314,131.5C 310.272,127.619 306.272,123.952 302,120.5C 301.809,122.708 301.309,124.708 300.5,126.5C 300.832,114.482 300.499,102.482 299.5,90.5C 291.145,92.1738 283.145,94.8404 275.5,98.5C 263.324,86.7245 250.657,75.3911 237.5,64.5C 238.427,48.7382 246.761,41.2382 262.5,42C 273.863,44.3651 279.863,51.3651 280.5,63C 280.386,72.7298 275.886,79.5632 267,83.5C 266.333,84.5 266.333,85.5 267,86.5C 276.066,80.8669 285.899,77.5336 296.5,76.5 Z M 257.5,56.5 C 265.932,58.514 267.265,62.6807 261.5,69C 256.706,69.8946 253.706,67.8946 252.5,63C 253.283,60.0622 254.95,57.8955 257.5,56.5 Z"/></g>
<g><path style="opacity:0.974" fill="#eb4d24" d="M 363.5,96.5 C 358.154,92.4819 353.154,88.1485 348.5,83.5C 335.208,76.1353 331.708,65.4686 338,51.5C 347.002,40.899 357.502,39.0656 369.5,46C 378.938,55.6542 379.938,66.1542 372.5,77.5C 370.083,80.0832 367.249,82.0832 364,83.5C 363.501,87.8206 363.334,92.1539 363.5,96.5 Z M 355.5,56.5 C 362.057,57.8746 363.89,61.5413 361,67.5C 355.228,71.0748 351.395,69.5748 349.5,63C 350.51,59.737 352.51,57.5703 355.5,56.5 Z"/></g>
<g><path style="opacity:0.962" fill="#ee6022" d="M 237.5,64.5 C 250.657,75.3911 263.324,86.7245 275.5,98.5C 272.829,100.934 269.996,103.267 267,105.5C 266.5,113.159 266.334,120.826 266.5,128.5C 258.859,121.862 251.192,115.196 243.5,108.5C 245.412,105.081 247.912,102.081 251,99.5C 251.667,94.1667 251.667,88.8333 251,83.5C 242.781,79.7846 238.281,73.4513 237.5,64.5 Z"/></g>
<g><path style="opacity:0.941" fill="#ef6821" d="M 177.5,70.5 C 181.426,70.0466 184.592,71.3799 187,74.5C 187.667,82.1667 187.667,89.8333 187,97.5C 186.535,98.9308 185.701,100.097 184.5,101C 180.756,101.929 177.256,101.429 174,99.5C 172.432,91.5788 172.099,83.5788 173,75.5C 174.025,73.313 175.525,71.6464 177.5,70.5 Z"/></g>
<g><path style="opacity:0.924" fill="#eb4625" d="M 434.5,79.5 C 438.888,78.9433 442.055,80.6099 444,84.5C 444.667,91.5 444.667,98.5 444,105.5C 442.95,108.877 440.617,110.877 437,111.5C 433.645,111.248 431.312,109.581 430,106.5C 429.333,98.8333 429.333,91.1667 430,83.5C 431.397,81.9297 432.897,80.5964 434.5,79.5 Z"/></g>
<g><path style="opacity:0.945" fill="#ef6e20" d="M 148.5,99.5 C 155.841,99.3337 163.174,99.5003 170.5,100C 176.922,104.783 176.922,109.45 170.5,114C 162.833,114.667 155.167,114.667 147.5,114C 142.003,108.683 142.336,103.85 148.5,99.5 Z"/></g>
<g><path style="opacity:0.937" fill="#ef6920" d="M 190.5,99.5 C 197.508,99.3337 204.508,99.5004 211.5,100C 216.143,102.072 217.643,105.572 216,110.5C 215.5,112.333 214.333,113.5 212.5,114C 204.833,114.667 197.167,114.667 189.5,114C 185.788,111.487 184.622,107.987 186,103.5C 187.397,101.93 188.897,100.596 190.5,99.5 Z"/></g>
<g><path style="opacity:0.963" fill="#ee6621" d="M 243.5,108.5 C 251.192,115.196 258.859,121.862 266.5,128.5C 266.192,130.924 266.526,133.257 267.5,135.5C 277.48,143.646 287.313,151.979 297,160.5C 298.113,159.695 299.279,159.028 300.5,158.5C 309.508,166.839 318.841,174.839 328.5,182.5C 326.223,193.83 319.223,199.83 307.5,200.5C 290.844,198.01 284.177,188.51 287.5,172C 276,162.5 264.5,153 253,143.5C 251.755,137.61 251.088,131.61 251,125.5C 246.217,134.58 244.051,144.247 244.5,154.5C 239.206,150.873 234.539,146.54 230.5,141.5C 231.801,129.243 236.134,118.243 243.5,108.5 Z M 305.5,172.5 C 312.369,172.538 314.869,175.871 313,182.5C 307.395,187.141 303.562,185.974 301.5,179C 301.722,176.038 303.056,173.871 305.5,172.5 Z"/></g>
<g><path style="opacity:0.941" fill="#ec4d24" d="M 405.5,108.5 C 412.508,108.334 419.508,108.5 426.5,109C 431.143,111.072 432.643,114.572 431,119.5C 430.5,121.333 429.333,122.5 427.5,123C 419.833,123.667 412.167,123.667 404.5,123C 400.788,120.487 399.622,116.987 401,112.5C 402.397,110.93 403.897,109.596 405.5,108.5 Z"/></g>
<g><path style="opacity:0.905" fill="#eb4725" d="M 446.5,108.5 C 453.841,108.334 461.174,108.5 468.5,109C 474.729,113.171 475.062,117.837 469.5,123C 461.833,123.667 454.167,123.667 446.5,123C 440.227,118.304 440.227,113.471 446.5,108.5 Z"/></g>
<g><path style="opacity:0.956" fill="#ef6f20" d="M 176.5,112.5 C 178.857,112.337 181.19,112.503 183.5,113C 185.333,113.5 186.5,114.667 187,116.5C 187.667,124.167 187.667,131.833 187,139.5C 184.487,143.212 180.987,144.378 176.5,143C 174.951,141.786 173.785,140.286 173,138.5C 172.333,131.5 172.333,124.5 173,117.5C 173.997,115.677 175.164,114.01 176.5,112.5 Z"/></g>
<g><path style="opacity:0.954" fill="#ee6022" d="M 315.5,125.5 C 315.168,136.853 315.501,148.186 316.5,159.5C 317.086,159.709 317.586,160.043 318,160.5C 322.707,156.288 327.54,152.288 332.5,148.5C 336.734,151.132 340.401,154.466 343.5,158.5C 338.861,162.968 334.028,167.301 329,171.5C 329.352,175.215 329.186,178.881 328.5,182.5C 318.841,174.839 309.508,166.839 300.5,158.5C 300.5,147.833 300.5,137.167 300.5,126.5C 301.309,124.708 301.809,122.708 302,120.5C 306.272,123.952 310.272,127.619 314,131.5C 314.191,129.292 314.691,127.292 315.5,125.5 Z"/></g>
<g><path style="opacity:0.93" fill="#eb4d24" d="M 433.5,121.5 C 438.439,120.352 441.939,122.019 444,126.5C 444.667,133.5 444.667,140.5 444,147.5C 441.928,152.143 438.428,153.643 433.5,152C 431.667,151.5 430.5,150.333 430,148.5C 429.333,140.833 429.333,133.167 430,125.5C 430.69,123.65 431.856,122.316 433.5,121.5 Z"/></g>
<g><path style="opacity:0.966" fill="#ef6f20" d="M 230.5,141.5 C 234.539,146.54 239.206,150.873 244.5,154.5C 243.965,161.784 245.132,168.784 248,175.5C 251.497,182.498 255.497,189.165 260,195.5C 263.4,201.629 266.234,207.963 268.5,214.5C 258.147,205.81 247.814,197.144 237.5,188.5C 236.847,187.193 236.18,185.86 235.5,184.5C 222.183,183.501 208.85,183.167 195.5,183.5C 192.242,182.829 188.909,181.996 185.5,181C 181.271,176.602 176.938,172.436 172.5,168.5C 191.836,168.667 211.17,168.5 230.5,168C 229.172,159.068 229.172,150.235 230.5,141.5 Z"/></g>
<g><path style="opacity:0.972" fill="#ed5a22" d="M 385.5,161.5 C 385.5,163.833 385.5,166.167 385.5,168.5C 387.833,168.5 390.167,168.5 392.5,168.5C 395.305,169.319 398.305,169.819 401.5,170C 406.695,174.366 411.695,178.866 416.5,183.5C 404.495,183.333 392.495,183.5 380.5,184C 379.601,185.652 378.601,187.152 377.5,188.5C 374.442,184.475 370.775,181.142 366.5,178.5C 370.025,168.831 371.691,158.831 371.5,148.5C 371.238,147.022 371.571,145.689 372.5,144.5C 375.354,147.188 378.354,149.688 381.5,152C 384.962,154.239 386.295,157.406 385.5,161.5 Z"/></g>
<g><path style="opacity:0.944" fill="#f2861c" d="M 84.5,168.5 C 82.369,169.314 80.0356,169.814 77.5,170C 82.6949,174.366 87.6949,178.866 92.5,183.5C 81.495,183.333 70.495,183.5 59.5,184C 57.8068,184.847 56.1401,185.68 54.5,186.5C 53.448,186.649 52.448,186.483 51.5,186C 48.9186,182.912 45.9186,180.412 42.5,178.5C 45.7472,172.86 50.7472,169.694 57.5,169C 66.4938,168.5 75.4938,168.334 84.5,168.5 Z"/></g>
<g><path style="opacity:0.944" fill="#f17f1e" d="M 84.5,168.5 C 99.1667,168.5 113.833,168.5 128.5,168.5C 133.833,173.5 139.167,178.5 144.5,183.5C 127.167,183.5 109.833,183.5 92.5,183.5C 87.6949,178.866 82.6949,174.366 77.5,170C 80.0356,169.814 82.369,169.314 84.5,168.5 Z"/></g>
<g><path style="opacity:0.936" fill="#f0791e" d="M 128.5,168.5 C 143.167,168.5 157.833,168.5 172.5,168.5C 176.938,172.436 181.271,176.602 185.5,181C 188.909,181.996 192.242,182.829 195.5,183.5C 178.5,183.5 161.5,183.5 144.5,183.5C 139.167,178.5 133.833,173.5 128.5,168.5 Z"/></g>
<g><path style="opacity:0.94" fill="#ec5323" d="M 392.5,168.5 C 412.836,168.333 433.169,168.5 453.5,169C 464.182,170.758 470.682,176.925 473,187.5C 473.5,202.83 473.667,218.163 473.5,233.5C 468.938,229.625 464.438,225.625 460,221.5C 459.814,218.964 459.314,216.631 458.5,214.5C 458.666,206.493 458.5,198.493 458,190.5C 457.193,187.027 455.027,184.86 451.5,184C 439.838,183.5 428.171,183.333 416.5,183.5C 411.695,178.866 406.695,174.366 401.5,170C 398.305,169.819 395.305,169.319 392.5,168.5 Z"/></g>
<g><path style="opacity:0.935" fill="#f28c1c" d="M 42.5,178.5 C 45.9186,180.412 48.9186,182.912 51.5,186C 52.448,186.483 53.448,186.649 54.5,186.5C 53.9101,187.766 53.4101,189.099 53,190.5C 52.5001,204.163 52.3334,217.829 52.5,231.5C 51.6862,229.369 51.1862,227.036 51,224.5C 46.8104,221.066 42.8104,217.4 39,213.5C 38.8091,215.708 38.3091,217.708 37.5,219.5C 37.3335,208.828 37.5002,198.161 38,187.5C 38.4717,183.89 39.9717,180.89 42.5,178.5 Z"/></g>
<g><path style="opacity:0.972" fill="#ee6021" d="M 366.5,178.5 C 370.775,181.142 374.442,184.475 377.5,188.5C 372.46,197.192 367.46,205.858 362.5,214.5C 359.14,210.473 355.473,206.806 351.5,203.5C 356.11,194.9 361.11,186.566 366.5,178.5 Z"/></g>
<g><path style="opacity:0.944" fill="#f0721f" d="M 237.5,188.5 C 247.814,197.144 258.147,205.81 268.5,214.5C 272.728,224.292 275.061,234.625 275.5,245.5C 289.833,245.5 304.167,245.5 318.5,245.5C 314.018,246.326 309.351,246.826 304.5,247C 309.167,251 313.833,255 318.5,259C 321.365,259.183 324.031,259.683 326.5,260.5C 309.5,260.5 292.5,260.5 275.5,260.5C 268.658,253.494 261.325,246.994 253.5,241C 255.708,240.809 257.708,240.309 259.5,239.5C 258.584,231.169 256.417,223.169 253,215.5C 248.327,206.146 243.16,197.146 237.5,188.5 Z"/></g>
<g><path style="opacity:0.937" fill="#f2891c" d="M 84.5,201.5 C 94.4631,200.298 98.9631,204.631 98,214.5C 95.5748,220.795 91.0748,222.962 84.5,221C 78.8309,218.185 76.9976,213.685 79,207.5C 80.3597,204.977 82.193,202.977 84.5,201.5 Z"/></g>
<g><path style="opacity:0.939" fill="#f17f1d" d="M 156.5,201.5 C 167.171,201.324 171.338,206.324 169,216.5C 163.897,222.263 158.23,222.93 152,218.5C 147.767,211.181 149.267,205.515 156.5,201.5 Z"/></g>
<g><path style="opacity:0.94" fill="#f2851d" d="M 120.5,201.5 C 131.304,201.145 135.471,206.145 133,216.5C 129.975,220.921 125.808,222.421 120.5,221C 111.229,214.556 111.229,208.056 120.5,201.5 Z"/></g>
<g><path style="opacity:0.952" fill="#ee6621" d="M 351.5,203.5 C 355.473,206.806 359.14,210.473 362.5,214.5C 359.154,222.538 356.821,230.872 355.5,239.5C 367.833,239.5 380.167,239.5 392.5,239.5C 397.305,244.134 402.305,248.634 407.5,253C 410.365,253.183 413.031,253.683 415.5,254.5C 398.163,254.333 380.83,254.5 363.5,255C 364.305,256.113 364.972,257.279 365.5,258.5C 364.778,258.918 364.278,259.584 364,260.5C 356.569,253.225 348.735,246.559 340.5,240.5C 341.572,227.294 345.239,214.96 351.5,203.5 Z"/></g>
<g><path style="opacity:0.949" fill="#f3911b" d="M 52.5,231.5 C 52.5,234.167 52.5,236.833 52.5,239.5C 57.8333,239.5 63.1667,239.5 68.5,239.5C 73.8333,244.5 79.1667,249.5 84.5,254.5C 73.8333,254.5 63.1667,254.5 52.5,254.5C 52.5,259.833 52.5,265.167 52.5,270.5C 51.6862,268.369 51.1862,266.036 51,263.5C 46.3314,259.663 41.8314,255.663 37.5,251.5C 37.5,240.833 37.5,230.167 37.5,219.5C 38.3091,217.708 38.8091,215.708 39,213.5C 42.8104,217.4 46.8104,221.066 51,224.5C 51.1862,227.036 51.6862,229.369 52.5,231.5 Z"/></g>
<g><path style="opacity:0.95" fill="#ed5d22" d="M 458.5,214.5 C 459.314,216.631 459.814,218.964 460,221.5C 464.438,225.625 468.938,229.625 473.5,233.5C 473.5,261.5 473.5,289.5 473.5,317.5C 472.686,315.369 472.186,313.036 472,310.5C 468.19,306.6 464.19,302.934 460,299.5C 459.814,296.964 459.314,294.631 458.5,292.5C 458.5,279.833 458.5,267.167 458.5,254.5C 444.167,254.5 429.833,254.5 415.5,254.5C 413.031,253.683 410.365,253.183 407.5,253C 402.305,248.634 397.305,244.134 392.5,239.5C 414.5,239.5 436.5,239.5 458.5,239.5C 458.5,231.167 458.5,222.833 458.5,214.5 Z"/></g>
<g><path style="opacity:0.932" fill="#f28c1c" d="M 68.5,239.5 C 83.1667,239.5 97.8333,239.5 112.5,239.5C 117.305,244.134 122.305,248.634 127.5,253C 130.695,253.181 133.695,253.681 136.5,254.5C 119.167,254.5 101.833,254.5 84.5,254.5C 79.1667,249.5 73.8333,244.5 68.5,239.5 Z"/></g>
<g><path style="opacity:0.943" fill="#f2861d" d="M 112.5,239.5 C 127.5,239.5 142.5,239.5 157.5,239.5C 162.833,244.5 168.167,249.5 173.5,254.5C 161.167,254.5 148.833,254.5 136.5,254.5C 133.695,253.681 130.695,253.181 127.5,253C 122.305,248.634 117.305,244.134 112.5,239.5 Z"/></g>
<g><path style="opacity:0.933" fill="#f17f1e" d="M 157.5,239.5 C 175.167,239.5 192.833,239.5 210.5,239.5C 210.389,240.117 210.056,240.617 209.5,241C 214.167,245 218.833,249 223.5,253C 226.365,253.183 229.031,253.683 231.5,254.5C 212.167,254.5 192.833,254.5 173.5,254.5C 168.167,249.5 162.833,244.5 157.5,239.5 Z"/></g>
<g><path style="opacity:0.961" fill="#ef6e20" d="M 340.5,240.5 C 348.735,246.559 356.569,253.225 364,260.5C 364.278,259.584 364.778,258.918 365.5,258.5C 366.978,271.524 366.812,284.524 365,297.5C 360.421,306.901 352.921,310.901 342.5,309.5C 342.81,312.713 342.477,315.713 341.5,318.5C 337.153,314.155 332.486,310.155 327.5,306.5C 326.769,302.397 327.769,298.897 330.5,296C 336.39,294.755 342.39,294.088 348.5,294C 349.308,293.692 349.975,293.192 350.5,292.5C 351.64,283.215 351.806,273.881 351,264.5C 350.626,263.584 350.126,262.75 349.5,262C 341.946,260.568 334.279,260.068 326.5,260.5C 324.031,259.683 321.365,259.183 318.5,259C 313.833,255 309.167,251 304.5,247C 309.351,246.826 314.018,246.326 318.5,245.5C 325.5,245.5 332.5,245.5 339.5,245.5C 339.366,243.708 339.699,242.042 340.5,240.5 Z"/></g>
<g><path style="opacity:0.939" fill="#f4991a" d="M 37.5,251.5 C 41.8314,255.663 46.3314,259.663 51,263.5C 51.1862,266.036 51.6862,268.369 52.5,270.5C 52.5,283.5 52.5,296.5 52.5,309.5C 47.5,305.5 42.5,301.5 37.5,297.5C 37.5,282.167 37.5,266.833 37.5,251.5 Z"/></g>
<g><path style="opacity:0.959" fill="#f07b1e" d="M 210.5,239.5 C 226.833,239.5 243.167,239.5 259.5,239.5C 257.708,240.309 255.708,240.809 253.5,241C 261.325,246.994 268.658,253.494 275.5,260.5C 271.743,260.071 268.243,260.737 265,262.5C 264.333,272.5 264.333,282.5 265,292.5C 265.5,293 266,293.5 266.5,294C 272.942,294.083 279.275,294.749 285.5,296C 286.856,302.811 288.19,309.644 289.5,316.5C 301.454,317.646 313.454,317.812 325.5,317C 326,316.5 326.5,316 327,315.5C 327.498,312.518 327.665,309.518 327.5,306.5C 332.486,310.155 337.153,314.155 341.5,318.5C 340.095,325.74 335.762,330.24 328.5,332C 314.5,332.667 300.5,332.667 286.5,332C 276.402,327.986 271.736,320.486 272.5,309.5C 263.195,310.596 256.028,307.262 251,299.5C 249.887,292.241 249.387,284.908 249.5,277.5C 249.667,271.167 249.833,264.833 250,258.5C 250.5,257.5 251,256.5 251.5,255.5C 244.866,254.503 238.2,254.17 231.5,254.5C 229.031,253.683 226.365,253.183 223.5,253C 218.833,249 214.167,245 209.5,241C 210.056,240.617 210.389,240.117 210.5,239.5 Z"/></g>
<g><path style="opacity:0.957" fill="#f2891c" d="M 249.5,398.5 C 245.561,395.738 241.728,392.738 238,389.5C 237.617,390.056 237.117,390.389 236.5,390.5C 243.943,351.886 229.943,324.053 194.5,307C 177.436,300.981 160.436,301.148 143.5,307.5C 143.631,306.761 143.464,306.094 143,305.5C 139.335,302.601 135.835,299.601 132.5,296.5C 165.266,281.968 195.933,285.468 224.5,307C 251.963,332.359 260.297,362.859 249.5,398.5 Z"/></g>
<g><path style="opacity:0.955" fill="#ee6721" d="M 458.5,292.5 C 459.314,294.631 459.814,296.964 460,299.5C 464.19,302.934 468.19,306.6 472,310.5C 472.186,313.036 472.686,315.369 473.5,317.5C 473.5,328.5 473.5,339.5 473.5,350.5C 472.698,351.952 472.198,353.618 472,355.5C 467.626,351.621 463.126,347.954 458.5,344.5C 458.5,327.167 458.5,309.833 458.5,292.5 Z"/></g>
<g><path style="opacity:0.966" fill="#f3921b" d="M 132.5,296.5 C 135.835,299.601 139.335,302.601 143,305.5C 143.464,306.094 143.631,306.761 143.5,307.5C 135.305,312.021 127.638,317.355 120.5,323.5C 116.518,320.524 112.518,317.524 108.5,314.5C 115.388,307.052 123.388,301.052 132.5,296.5 Z"/></g>
<g><path style="opacity:0.944" fill="#f49f19" d="M 37.5,297.5 C 42.5,301.5 47.5,305.5 52.5,309.5C 52.5,322.5 52.5,335.5 52.5,348.5C 47.874,345.046 43.374,341.379 39,337.5C 38.8171,334.635 38.3171,331.969 37.5,329.5C 37.5,318.833 37.5,308.167 37.5,297.5 Z"/></g>
<g><path style="opacity:0.966" fill="#f4991a" d="M 108.5,314.5 C 112.518,317.524 116.518,320.524 120.5,323.5C 112.507,332.48 106.841,342.813 103.5,354.5C 99.243,351.749 95.4097,348.416 92,344.5C 91.6174,345.056 91.1174,345.389 90.5,345.5C 94.2041,333.748 100.204,323.415 108.5,314.5 Z"/></g>
<g><path style="opacity:0.968" fill="#f3921b" d="M 194.5,390.5 C 190.859,387.195 187.192,383.862 183.5,380.5C 187.426,377.193 191.76,374.36 196.5,372C 181.834,362.331 166.834,353.165 151.5,344.5C 150.508,348.783 150.174,353.116 150.5,357.5C 149.683,355.031 149.183,352.365 149,349.5C 144.28,345.606 139.78,341.606 135.5,337.5C 138.522,328.976 144.522,325.809 153.5,328C 171.5,338.667 189.5,349.333 207.5,360C 214.703,366.698 215.37,374.031 209.5,382C 204.594,385.089 199.594,387.923 194.5,390.5 Z"/></g>
<g><path style="opacity:0.927" fill="#f5a519" d="M 37.5,329.5 C 38.3171,331.969 38.8171,334.635 39,337.5C 43.374,341.379 47.874,345.046 52.5,348.5C 52.5,361.5 52.5,374.5 52.5,387.5C 47.8927,384.232 43.5594,380.565 39.5,376.5C 38.8243,377.602 38.1577,378.602 37.5,379.5C 37.5,362.833 37.5,346.167 37.5,329.5 Z"/></g>
<g><path style="opacity:0.925" fill="#ef6d20" d="M 458.5,344.5 C 463.126,347.954 467.626,351.621 472,355.5C 472.198,353.618 472.698,351.952 473.5,350.5C 473.5,367.833 473.5,385.167 473.5,402.5C 472.683,400.031 472.183,397.365 472,394.5C 467.626,390.621 463.126,386.954 458.5,383.5C 458.5,370.5 458.5,357.5 458.5,344.5 Z"/></g>
<g><path style="opacity:0.961" fill="#f2851d" d="M 284.5,358.5 C 287.758,359.171 291.091,360.004 294.5,361C 298.2,365.035 302.2,368.702 306.5,372C 309.695,372.181 312.695,372.681 315.5,373.5C 302.496,373.667 289.496,373.5 276.5,373C 270.718,367.264 271.384,362.598 278.5,359C 280.473,358.505 282.473,358.338 284.5,358.5 Z"/></g>
<g><path style="opacity:0.917" fill="#f17f1e" d="M 284.5,358.5 C 309.167,358.5 333.833,358.5 358.5,358.5C 354.018,359.326 349.351,359.826 344.5,360C 349.695,364.366 354.695,368.866 359.5,373.5C 344.833,373.5 330.167,373.5 315.5,373.5C 312.695,372.681 309.695,372.181 306.5,372C 302.2,368.702 298.2,365.035 294.5,361C 291.091,360.004 287.758,359.171 284.5,358.5 Z"/></g>
<g><path style="opacity:0.918" fill="#f0761f" d="M 358.5,358.5 C 377.17,358.333 395.836,358.5 414.5,359C 420.448,361.433 421.948,365.6 419,371.5C 418.25,372.126 417.416,372.626 416.5,373C 397.503,373.5 378.503,373.667 359.5,373.5C 354.695,368.866 349.695,364.366 344.5,360C 349.351,359.826 354.018,359.326 358.5,358.5 Z"/></g>
<g><path style="opacity:0.938" fill="#f5ab18" d="M 52.5,387.5 C 52.5,400.5 52.5,413.5 52.5,426.5C 47.5,422.5 42.5,418.5 37.5,414.5C 37.5,402.833 37.5,391.167 37.5,379.5C 38.1577,378.602 38.8243,377.602 39.5,376.5C 43.5594,380.565 47.8927,384.232 52.5,387.5 Z"/></g>
<g><path style="opacity:0.965" fill="#f5a219" d="M 103.5,354.5 C 96.7315,392.465 110.731,419.631 145.5,436C 162.587,442.124 179.587,441.957 196.5,435.5C 199.145,440.145 202.812,443.812 207.5,446.5C 174.229,461.624 143.229,457.791 114.5,435C 88.6687,409.998 80.6687,380.165 90.5,345.5C 91.1174,345.389 91.6174,345.056 92,344.5C 95.4097,348.416 99.243,351.749 103.5,354.5 Z"/></g>
<g><path style="opacity:0.971" fill="#f49a1a" d="M 135.5,337.5 C 139.78,341.606 144.28,345.606 149,349.5C 149.183,352.365 149.683,355.031 150.5,357.5C 150.333,371.504 150.5,385.504 151,399.5C 161.478,392.513 172.312,386.18 183.5,380.5C 187.192,383.862 190.859,387.195 194.5,390.5C 181.397,398.892 168.064,407.059 154.5,415C 146.151,417.542 139.984,415.042 136,407.5C 135.5,384.169 135.333,360.836 135.5,337.5 Z"/></g>
<g><path style="opacity:0.938" fill="#f0731f" d="M 458.5,383.5 C 463.126,386.954 467.626,390.621 472,394.5C 472.183,397.365 472.683,400.031 473.5,402.5C 473.5,413.167 473.5,423.833 473.5,434.5C 468.5,430.5 463.5,426.5 458.5,422.5C 458.5,409.5 458.5,396.5 458.5,383.5 Z"/></g>
<g><path style="opacity:0.974" fill="#f3921b" d="M 249.5,398.5 C 246.574,408.733 241.574,417.733 234.5,425.5C 230.833,422.167 227.167,418.833 223.5,415.5C 229.662,408.178 233.995,399.845 236.5,390.5C 237.117,390.389 237.617,390.056 238,389.5C 241.728,392.738 245.561,395.738 249.5,398.5 Z"/></g>
<g><path style="opacity:0.945" fill="#f2871d" d="M 321.5,391.5 C 324.305,392.319 327.305,392.819 330.5,393C 334.643,397.233 338.977,401.233 343.5,405C 346.695,405.181 349.695,405.681 352.5,406.5C 327.164,406.667 301.831,406.5 276.5,406C 270.718,400.264 271.384,395.598 278.5,392C 292.829,391.5 307.163,391.333 321.5,391.5 Z"/></g>
<g><path style="opacity:0.917" fill="#f17f1e" d="M 321.5,391.5 C 346.167,391.5 370.833,391.5 395.5,391.5C 391.018,392.326 386.351,392.826 381.5,393C 386.695,397.366 391.695,401.866 396.5,406.5C 381.833,406.5 367.167,406.5 352.5,406.5C 349.695,405.681 346.695,405.181 343.5,405C 338.977,401.233 334.643,397.233 330.5,393C 327.305,392.819 324.305,392.319 321.5,391.5 Z"/></g>
<g><path style="opacity:0.948" fill="#f07a1e" d="M 395.5,391.5 C 402.175,391.334 408.842,391.5 415.5,392C 420.535,395.013 421.702,399.18 419,404.5C 418.25,405.126 417.416,405.626 416.5,406C 409.842,406.5 403.175,406.666 396.5,406.5C 391.695,401.866 386.695,397.366 381.5,393C 386.351,392.826 391.018,392.326 395.5,391.5 Z"/></g>
<g><path style="opacity:0.932" fill="#f7b217" d="M 37.5,414.5 C 42.5,418.5 47.5,422.5 52.5,426.5C 52.5,441.833 52.5,457.167 52.5,472.5C 48.1686,468.337 43.6686,464.337 39,460.5C 38.8091,462.708 38.3091,464.708 37.5,466.5C 37.5,449.167 37.5,431.833 37.5,414.5 Z"/></g>
<g><path style="opacity:0.968" fill="#f4991a" d="M 223.5,415.5 C 227.167,418.833 230.833,422.167 234.5,425.5C 227.498,435.156 218.498,442.156 207.5,446.5C 202.812,443.812 199.145,440.145 196.5,435.5C 207.181,431.004 216.181,424.337 223.5,415.5 Z"/></g>
<g><path style="opacity:0.962" fill="#f0791f" d="M 458.5,422.5 C 463.5,426.5 468.5,430.5 473.5,434.5C 473.5,445.5 473.5,456.5 473.5,467.5C 472.698,468.952 472.198,470.618 472,472.5C 467.626,468.621 463.126,464.954 458.5,461.5C 458.5,448.5 458.5,435.5 458.5,422.5 Z"/></g>
<g><path style="opacity:0.982" fill="#f28d1c" d="M 322.5,424.5 C 327.833,429.5 333.167,434.5 338.5,439.5C 317.831,439.667 297.164,439.5 276.5,439C 270.718,433.264 271.384,428.598 278.5,425C 293.163,424.5 307.83,424.333 322.5,424.5 Z"/></g>
<g><path style="opacity:0.945" fill="#f1861d" d="M 322.5,424.5 C 334.833,424.5 347.167,424.5 359.5,424.5C 361.969,425.317 364.635,425.817 367.5,426C 372.167,430 376.833,434 381.5,438C 384.365,438.183 387.031,438.683 389.5,439.5C 372.5,439.5 355.5,439.5 338.5,439.5C 333.167,434.5 327.833,429.5 322.5,424.5 Z"/></g>
<g><path style="opacity:0.922" fill="#f1801d" d="M 359.5,424.5 C 378.17,424.333 396.836,424.5 415.5,425C 420.774,428.298 421.774,432.631 418.5,438C 408.939,439.448 399.273,439.948 389.5,439.5C 387.031,438.683 384.365,438.183 381.5,438C 376.833,434 372.167,430 367.5,426C 364.635,425.817 361.969,425.317 359.5,424.5 Z"/></g>
<g><path style="opacity:0.973" fill="#f7b717" d="M 52.5,472.5 C 52.5,477.833 52.5,483.167 52.5,488.5C 80.8333,488.5 109.167,488.5 137.5,488.5C 137.5,488.833 137.5,489.167 137.5,489.5C 132.833,489.5 128.167,489.5 123.5,489.5C 106.497,489.333 89.4967,489.5 72.5,490C 77.6949,494.366 82.6949,498.866 87.5,503.5C 71.4044,503.97 55.4044,503.47 39.5,502C 38.8742,501.25 38.3742,500.416 38,499.5C 37.5002,488.505 37.3335,477.505 37.5,466.5C 38.3091,464.708 38.8091,462.708 39,460.5C 43.6686,464.337 48.1686,468.337 52.5,472.5 Z"/></g>
<g><path style="opacity:0.956" fill="#f1801e" d="M 458.5,461.5 C 463.126,464.954 467.626,468.621 472,472.5C 472.198,470.618 472.698,468.952 473.5,467.5C 473.956,478.936 473.456,490.269 472,501.5C 471.25,502.126 470.416,502.626 469.5,503C 464.511,503.499 459.511,503.666 454.5,503.5C 450.1,498.786 445.434,494.286 440.5,490C 446.681,489.828 452.681,489.328 458.5,488.5C 458.5,479.5 458.5,470.5 458.5,461.5 Z"/></g>
<g><path style="opacity:0.87" fill="#f1861d" d="M 358.5,489.5 C 358.5,489.167 358.5,488.833 358.5,488.5C 391.833,488.5 425.167,488.5 458.5,488.5C 452.681,489.328 446.681,489.828 440.5,490C 445.434,494.286 450.1,498.786 454.5,503.5C 439.833,503.5 425.167,503.5 410.5,503.5C 405.729,499.231 401.062,494.731 396.5,490C 383.838,489.5 371.171,489.333 358.5,489.5 Z"/></g>
<g><path style="opacity:1" fill="#f7b217" d="M 123.5,489.5 C 128.5,494.167 133.5,498.833 138.5,503.5C 121.5,503.5 104.5,503.5 87.5,503.5C 82.6949,498.866 77.6949,494.366 72.5,490C 89.4967,489.5 106.497,489.333 123.5,489.5 Z"/></g>
<g><path style="opacity:1" fill="#f6ab18" d="M 123.5,489.5 C 128.167,489.5 132.833,489.5 137.5,489.5C 147.506,489.334 157.506,489.5 167.5,490C 172.695,494.366 177.695,498.866 182.5,503.5C 167.833,503.5 153.167,503.5 138.5,503.5C 133.5,498.833 128.5,494.167 123.5,489.5 Z"/></g>
<g><path style="opacity:1" fill="#f4a519" d="M 137.5,489.5 C 137.5,489.167 137.5,488.833 137.5,488.5C 174.167,488.5 210.833,488.5 247.5,488.5C 247.5,488.833 247.5,489.167 247.5,489.5C 235.829,489.333 224.162,489.5 212.5,490C 217.434,494.286 222.1,498.786 226.5,503.5C 211.833,503.5 197.167,503.5 182.5,503.5C 177.695,498.866 172.695,494.366 167.5,490C 157.506,489.5 147.506,489.334 137.5,489.5 Z"/></g>
<g><path style="opacity:1" fill="#f59f19" d="M 247.5,489.5 C 250.518,489.335 253.518,489.502 256.5,490C 261.695,494.366 266.695,498.866 271.5,503.5C 256.5,503.5 241.5,503.5 226.5,503.5C 222.1,498.786 217.434,494.286 212.5,490C 224.162,489.5 235.829,489.333 247.5,489.5 Z"/></g>
<g><path style="opacity:1" fill="#f3981b" d="M 247.5,489.5 C 247.5,489.167 247.5,488.833 247.5,488.5C 284.5,488.5 321.5,488.5 358.5,488.5C 358.5,488.833 358.5,489.167 358.5,489.5C 356.167,489.5 353.833,489.5 351.5,489.5C 336.83,489.333 322.163,489.5 307.5,490C 312.695,494.366 317.695,498.866 322.5,503.5C 305.5,503.5 288.5,503.5 271.5,503.5C 266.695,498.866 261.695,494.366 256.5,490C 253.518,489.502 250.518,489.335 247.5,489.5 Z"/></g>
<g><path style="opacity:1" fill="#f3921b" d="M 351.5,489.5 C 356.5,494.167 361.5,498.833 366.5,503.5C 351.833,503.5 337.167,503.5 322.5,503.5C 317.695,498.866 312.695,494.366 307.5,490C 322.163,489.5 336.83,489.333 351.5,489.5 Z"/></g>
<g><path style="opacity:1" fill="#f28c1c" d="M 351.5,489.5 C 353.833,489.5 356.167,489.5 358.5,489.5C 371.171,489.333 383.838,489.5 396.5,490C 401.062,494.731 405.729,499.231 410.5,503.5C 395.833,503.5 381.167,503.5 366.5,503.5C 361.5,498.833 356.5,494.167 351.5,489.5 Z"/></g>
</svg>
