<?xml version="1.0" encoding="UTF-8"?>
<!DOCTYPE svg PUBLIC "-//W3C//DTD SVG 1.1//EN" "http://www.w3.org/Graphics/SVG/1.1/DTD/svg11.dtd">
<svg xmlns="http://www.w3.org/2000/svg" version="1.1" width="512px" height="512px" style="shape-rendering:geometricPrecision; text-rendering:geometricPrecision; image-rendering:optimizeQuality; fill-rule:evenodd; clip-rule:evenodd" xmlns:xlink="http://www.w3.org/1999/xlink">
<g><path style="opacity:0.987" fill="#ffdc00" d="M 8.5,-0.5 C 32.5,-0.5 56.5,-0.5 80.5,-0.5C 85.7105,2.23974 88.7105,6.57308 89.5,12.5C 59.5,12.5 29.5,12.5 -0.5,12.5C -0.5,11.1667 -0.5,9.83333 -0.5,8.5C 0.803551,7.01307 1.97022,5.3464 3,3.5C 5.01533,2.30342 6.84866,0.970083 8.5,-0.5 Z"/></g>
<g><path style="opacity:0.987" fill="#ffdc00" d="M 219.5,-0.5 C 243.5,-0.5 267.5,-0.5 291.5,-0.5C 296.711,2.23974 299.711,6.57308 300.5,12.5C 270.5,12.5 240.5,12.5 210.5,12.5C 211.289,6.57308 214.289,2.23974 219.5,-0.5 Z"/></g>
<g><path style="opacity:0.987" fill="#ffdc00" d="M 430.5,-0.5 C 454.5,-0.5 478.5,-0.5 502.5,-0.5C 503.987,0.803551 505.654,1.97022 507.5,3C 508.697,5.01533 510.03,6.84866 511.5,8.5C 511.5,9.83333 511.5,11.1667 511.5,12.5C 481.5,12.5 451.5,12.5 421.5,12.5C 422.289,6.57308 425.289,2.23974 430.5,-0.5 Z"/></g>
<g><path style="opacity:1" fill="#ffd700" d="M -0.5,12.5 C 29.5,12.5 59.5,12.5 89.5,12.5C 89.5,18.1667 89.5,23.8333 89.5,29.5C 129.833,29.5 170.167,29.5 210.5,29.5C 210.5,23.8333 210.5,18.1667 210.5,12.5C 240.5,12.5 270.5,12.5 300.5,12.5C 300.5,18.1667 300.5,23.8333 300.5,29.5C 340.833,29.5 381.167,29.5 421.5,29.5C 421.5,23.8333 421.5,18.1667 421.5,12.5C 451.5,12.5 481.5,12.5 511.5,12.5C 511.5,20.5 511.5,28.5 511.5,36.5C 501.5,36.5 491.5,36.5 481.5,36.5C 481.5,34.1667 481.5,31.8333 481.5,29.5C 471.5,29.5 461.5,29.5 451.5,29.5C 451.5,31.8333 451.5,34.1667 451.5,36.5C 391.167,36.5 330.833,36.5 270.5,36.5C 270.5,34.1667 270.5,31.8333 270.5,29.5C 260.5,29.5 250.5,29.5 240.5,29.5C 240.5,31.8333 240.5,34.1667 240.5,36.5C 180.167,36.5 119.833,36.5 59.5,36.5C 59.5,34.1667 59.5,31.8333 59.5,29.5C 49.5,29.5 39.5,29.5 29.5,29.5C 29.5,31.8333 29.5,34.1667 29.5,36.5C 19.5,36.5 9.5,36.5 -0.5,36.5C -0.5,28.5 -0.5,20.5 -0.5,12.5 Z"/></g>
<g><path style="opacity:1" fill="#ffd100" d="M -0.5,36.5 C 9.5,36.5 19.5,36.5 29.5,36.5C 29.5,44.1667 29.5,51.8333 29.5,59.5C 19.5,59.5 9.5,59.5 -0.5,59.5C -0.5,51.8333 -0.5,44.1667 -0.5,36.5 Z"/></g>
<g><path style="opacity:1" fill="#ffd100" d="M 59.5,36.5 C 119.833,36.5 180.167,36.5 240.5,36.5C 240.5,44.1667 240.5,51.8333 240.5,59.5C 207.094,59.1741 173.76,59.5075 140.5,60.5C 123.675,59.5034 106.675,59.1701 89.5,59.5C 79.5,59.5 69.5,59.5 59.5,59.5C 59.5,51.8333 59.5,44.1667 59.5,36.5 Z"/></g>
<g><path style="opacity:1" fill="#ffd100" d="M 270.5,36.5 C 330.833,36.5 391.167,36.5 451.5,36.5C 451.5,44.1667 451.5,51.8333 451.5,59.5C 441.5,59.5 431.5,59.5 421.5,59.5C 404.325,59.1701 387.325,59.5034 370.5,60.5C 337.21,59.5141 303.877,59.1807 270.5,59.5C 270.5,51.8333 270.5,44.1667 270.5,36.5 Z"/></g>
<g><path style="opacity:1" fill="#ffd100" d="M 481.5,36.5 C 491.5,36.5 501.5,36.5 511.5,36.5C 511.5,44.1667 511.5,51.8333 511.5,59.5C 501.5,59.5 491.5,59.5 481.5,59.5C 481.5,51.8333 481.5,44.1667 481.5,36.5 Z"/></g>
<g><path style="opacity:0.997" fill="#ffca00" d="M -0.5,59.5 C 9.5,59.5 19.5,59.5 29.5,59.5C 39.5,59.5 49.5,59.5 59.5,59.5C 69.5,59.5 79.5,59.5 89.5,59.5C 89.6663,66.5079 89.4996,73.5079 89,80.5C 87.5,84.6667 84.6667,87.5 80.5,89C 56.5,89.6667 32.5,89.6667 8.5,89C 4.31481,87.3122 1.31481,84.4788 -0.5,80.5C -0.5,73.5 -0.5,66.5 -0.5,59.5 Z"/></g>
<g><path style="opacity:0.984" fill="#ffcb00" d="M 240.5,59.5 C 250.5,59.5 260.5,59.5 270.5,59.5C 303.877,59.1807 337.21,59.5141 370.5,60.5C 382.981,67.3208 394.315,75.6541 404.5,85.5C 388.167,86.1667 371.833,86.8333 355.5,87.5C 338.298,77.4306 319.965,70.0972 300.5,65.5C 300.666,70.5111 300.499,75.5111 300,80.5C 298.64,83.7352 296.473,86.2352 293.5,88C 280.925,89.1486 268.258,89.6486 255.5,89.5C 242.742,89.6486 230.075,89.1486 217.5,88C 214.527,86.2352 212.36,83.7352 211,80.5C 210.501,75.5111 210.334,70.5111 210.5,65.5C 191.035,70.0972 172.702,77.4306 155.5,87.5C 138.911,86.5152 122.244,86.1819 105.5,86.5C 116.015,76.3234 127.682,67.6567 140.5,60.5C 173.76,59.5075 207.094,59.1741 240.5,59.5 Z"/></g>
<g><path style="opacity:0.997" fill="#ffca00" d="M 421.5,59.5 C 431.5,59.5 441.5,59.5 451.5,59.5C 461.5,59.5 471.5,59.5 481.5,59.5C 491.5,59.5 501.5,59.5 511.5,59.5C 511.5,66.5 511.5,73.5 511.5,80.5C 509.685,84.4788 506.685,87.3122 502.5,89C 478.5,89.6667 454.5,89.6667 430.5,89C 426.333,87.5 423.5,84.6667 422,80.5C 421.5,73.5079 421.334,66.5079 421.5,59.5 Z"/></g>
<g><path style="opacity:0.975" fill="#ffc400" d="M 404.5,85.5 C 413.5,92.5 421.5,100.5 428.5,109.5C 414.167,109.5 399.833,109.5 385.5,109.5C 375.817,101.666 365.817,94.3328 355.5,87.5C 371.833,86.8333 388.167,86.1667 404.5,85.5 Z"/></g>
<g><path style="opacity:0.973" fill="#ffc400" d="M 105.5,86.5 C 122.244,86.1819 138.911,86.5152 155.5,87.5C 144.67,94.4235 134.337,102.09 124.5,110.5C 110.677,109.504 96.6766,109.171 82.5,109.5C 89.1877,100.812 96.8544,93.1456 105.5,86.5 Z"/></g>
<g><path style="opacity:0.974" fill="#febe00" d="M 82.5,109.5 C 96.6766,109.171 110.677,109.504 124.5,110.5C 117.509,117.791 110.509,125.125 103.5,132.5C 90.9887,132.829 78.6554,132.495 66.5,131.5C 70.68,123.321 76.0133,115.988 82.5,109.5 Z"/></g>
<g><path style="opacity:0.973" fill="#febe00" d="M 385.5,109.5 C 399.833,109.5 414.167,109.5 428.5,109.5C 435.292,116.298 440.959,123.965 445.5,132.5C 432.989,132.171 420.655,132.505 408.5,133.5C 400.806,125.474 393.139,117.474 385.5,109.5 Z"/></g>
<g><path style="opacity:0.976" fill="#feb800" d="M 66.5,131.5 C 78.6554,132.495 90.9887,132.829 103.5,132.5C 97.9076,140.029 92.5743,147.696 87.5,155.5C 75.8333,155.5 64.1667,155.5 52.5,155.5C 56.1607,146.836 60.8274,138.836 66.5,131.5 Z"/></g>
<g><path style="opacity:0.979" fill="#feb900" d="M 284.5,155.5 C 265.167,155.5 245.833,155.5 226.5,155.5C 232.058,145.391 237.891,135.391 244,125.5C 251.667,120.167 259.333,120.167 267,125.5C 273.109,135.391 278.942,145.391 284.5,155.5 Z"/></g>
<g><path style="opacity:0.974" fill="#feb800" d="M 445.5,132.5 C 450.322,139.468 454.656,146.801 458.5,154.5C 446.914,155.478 435.247,155.811 423.5,155.5C 418.533,148.19 413.533,140.856 408.5,133.5C 420.655,132.505 432.989,132.171 445.5,132.5 Z"/></g>
<g><path style="opacity:0.973" fill="#feb200" d="M 458.5,154.5 C 463.279,163.392 466.946,172.726 469.5,182.5C 458.654,182.172 447.987,182.506 437.5,183.5C 433.393,173.953 428.727,164.62 423.5,155.5C 435.247,155.811 446.914,155.478 458.5,154.5 Z"/></g>
<g><path style="opacity:0.973" fill="#feb200" d="M 52.5,155.5 C 64.1667,155.5 75.8333,155.5 87.5,155.5C 82.3675,164.099 78.0342,173.099 74.5,182.5C 63.5,182.5 52.5,182.5 41.5,182.5C 43.8186,172.875 47.4852,163.875 52.5,155.5 Z"/></g>
<g><path style="opacity:0.988" fill="#feb100" d="M 226.5,155.5 C 245.833,155.5 265.167,155.5 284.5,155.5C 290.586,163.997 295.919,172.997 300.5,182.5C 270.5,182.5 240.5,182.5 210.5,182.5C 215.081,172.997 220.414,163.997 226.5,155.5 Z"/></g>
<g><path style="opacity:0.973" fill="#feab00" d="M 41.5,182.5 C 52.5,182.5 63.5,182.5 74.5,182.5C 71.0423,189.872 68.3756,197.539 66.5,205.5C 55.8333,205.5 45.1667,205.5 34.5,205.5C 35.8607,197.426 38.194,189.76 41.5,182.5 Z"/></g>
<g><path style="opacity:0.985" fill="#feab00" d="M 210.5,182.5 C 240.5,182.5 270.5,182.5 300.5,182.5C 305.403,189.964 310.07,197.631 314.5,205.5C 302.5,205.5 290.5,205.5 278.5,205.5C 276.225,201.385 273.725,197.385 271,193.5C 270.501,197.486 270.334,201.486 270.5,205.5C 260.5,205.5 250.5,205.5 240.5,205.5C 240.666,201.486 240.499,197.486 240,193.5C 237.275,197.385 234.775,201.385 232.5,205.5C 220.5,205.5 208.5,205.5 196.5,205.5C 200.93,197.631 205.597,189.964 210.5,182.5 Z"/></g>
<g><path style="opacity:0.972" fill="#feab00" d="M 469.5,182.5 C 472.587,189.825 474.92,197.492 476.5,205.5C 465.752,205.191 455.085,205.524 444.5,206.5C 442.77,198.643 440.436,190.976 437.5,183.5C 447.987,182.506 458.654,182.172 469.5,182.5 Z"/></g>
<g><path style="opacity:0.976" fill="#fea500" d="M 34.5,205.5 C 45.1667,205.5 55.8333,205.5 66.5,205.5C 64.5088,213.121 62.8421,220.788 61.5,228.5C 51.1667,228.5 40.8333,228.5 30.5,228.5C 31.3199,220.735 32.6532,213.068 34.5,205.5 Z"/></g>
<g><path style="opacity:0.974" fill="#fea500" d="M 196.5,205.5 C 208.5,205.5 220.5,205.5 232.5,205.5C 228.07,213.369 223.403,221.036 218.5,228.5C 206.5,228.5 194.5,228.5 182.5,228.5C 187.201,220.811 191.868,213.144 196.5,205.5 Z"/></g>
<g><path style="opacity:1" fill="#fea500" d="M 240.5,205.5 C 250.5,205.5 260.5,205.5 270.5,205.5C 270.5,213.167 270.5,220.833 270.5,228.5C 260.5,228.5 250.5,228.5 240.5,228.5C 240.5,220.833 240.5,213.167 240.5,205.5 Z"/></g>
<g><path style="opacity:0.976" fill="#fea500" d="M 278.5,205.5 C 290.5,205.5 302.5,205.5 314.5,205.5C 318.819,212.798 323.152,220.131 327.5,227.5C 315.963,227.841 304.63,228.841 293.5,230.5C 288.263,222.368 283.263,214.035 278.5,205.5 Z"/></g>
<g><path style="opacity:0.976" fill="#fea500" d="M 476.5,205.5 C 478.218,212.758 479.551,220.091 480.5,227.5C 470.167,228.167 459.833,228.833 449.5,229.5C 448.213,221.73 446.546,214.063 444.5,206.5C 455.085,205.524 465.752,205.191 476.5,205.5 Z"/></g>
<g><path style="opacity:0.984" fill="#fe9e00" d="M 480.5,227.5 C 480.833,231.5 481.167,235.5 481.5,239.5C 488.508,239.334 495.508,239.5 502.5,240C 506.685,241.688 509.685,244.521 511.5,248.5C 511.5,249.833 511.5,251.167 511.5,252.5C 481.5,251.833 451.5,251.167 421.5,250.5C 422.749,245.505 425.749,242.005 430.5,240C 437.158,239.5 443.825,239.334 450.5,239.5C 449.949,236.193 449.616,232.86 449.5,229.5C 459.833,228.833 470.167,228.167 480.5,227.5 Z"/></g>
<g><path style="opacity:0.984" fill="#fe9e00" d="M 30.5,228.5 C 40.8333,228.5 51.1667,228.5 61.5,228.5C 61.4476,232.198 61.1143,235.865 60.5,239.5C 67.175,239.334 73.8417,239.5 80.5,240C 85.8304,242.496 88.8304,246.663 89.5,252.5C 59.5,251.833 29.5,251.167 -0.5,250.5C -0.5,249.833 -0.5,249.167 -0.5,248.5C 1.31481,244.521 4.31481,241.688 8.5,240C 15.4921,239.5 22.4921,239.334 29.5,239.5C 29.7244,235.821 30.0578,232.154 30.5,228.5 Z"/></g>
<g><path style="opacity:0.975" fill="#fe9f00" d="M 182.5,228.5 C 194.5,228.5 206.5,228.5 218.5,228.5C 214.224,236.764 209.558,244.764 204.5,252.5C 192.932,251.814 181.265,251.147 169.5,250.5C 173.833,243.167 178.167,235.833 182.5,228.5 Z"/></g>
<g><path style="opacity:1" fill="#fe9f00" d="M 240.5,228.5 C 250.5,228.5 260.5,228.5 270.5,228.5C 270.5,236.167 270.5,243.833 270.5,251.5C 260.5,251.5 250.5,251.5 240.5,251.5C 240.5,243.833 240.5,236.167 240.5,228.5 Z"/></g>
<g><path style="opacity:0.973" fill="#fe9f00" d="M 327.5,227.5 C 332.668,235.164 337.335,243.164 341.5,251.5C 329.833,251.5 318.167,251.5 306.5,251.5C 301.805,244.787 297.472,237.787 293.5,230.5C 304.63,228.841 315.963,227.841 327.5,227.5 Z"/></g>
<g><path style="opacity:1" fill="#fe9900" d="M -0.5,250.5 C 29.5,251.167 59.5,251.833 89.5,252.5C 89.5,261.167 89.5,269.833 89.5,278.5C 79.5,278.5 69.5,278.5 59.5,278.5C 59.5,275.5 59.5,272.5 59.5,269.5C 49.5,269.5 39.5,269.5 29.5,269.5C 29.5,272.5 29.5,275.5 29.5,278.5C 19.5,278.5 9.5,278.5 -0.5,278.5C -0.5,269.167 -0.5,259.833 -0.5,250.5 Z"/></g>
<g><path style="opacity:0.974" fill="#fe9900" d="M 169.5,250.5 C 181.265,251.147 192.932,251.814 204.5,252.5C 199.654,261.537 194.321,270.204 188.5,278.5C 176.833,278.5 165.167,278.5 153.5,278.5C 158.406,268.926 163.739,259.593 169.5,250.5 Z"/></g>
<g><path style="opacity:1" fill="#fe9900" d="M 421.5,250.5 C 451.5,251.167 481.5,251.833 511.5,252.5C 511.5,261.167 511.5,269.833 511.5,278.5C 501.5,278.5 491.5,278.5 481.5,278.5C 481.5,275.5 481.5,272.5 481.5,269.5C 471.5,269.5 461.5,269.5 451.5,269.5C 451.5,272.5 451.5,275.5 451.5,278.5C 441.5,278.5 431.5,278.5 421.5,278.5C 421.5,269.167 421.5,259.833 421.5,250.5 Z"/></g>
<g><path style="opacity:1" fill="#fe9900" d="M 240.5,251.5 C 250.5,251.5 260.5,251.5 270.5,251.5C 270.5,260.5 270.5,269.5 270.5,278.5C 260.5,278.5 250.5,278.5 240.5,278.5C 240.5,269.5 240.5,260.5 240.5,251.5 Z"/></g>
<g><path style="opacity:0.974" fill="#fe9900" d="M 306.5,251.5 C 318.167,251.5 329.833,251.5 341.5,251.5C 347.195,259.88 352.529,268.546 357.5,277.5C 345.914,278.478 334.247,278.811 322.5,278.5C 316.414,270.003 311.081,261.003 306.5,251.5 Z"/></g>
<g><path style="opacity:0.976" fill="#fe9200" d="M 357.5,277.5 C 362.566,285.241 367.232,293.241 371.5,301.5C 359.655,301.172 347.988,301.505 336.5,302.5C 331.332,294.836 326.665,286.836 322.5,278.5C 334.247,278.811 345.914,278.478 357.5,277.5 Z"/></g>
<g><path style="opacity:1" fill="#fe9200" d="M -0.5,278.5 C 9.5,278.5 19.5,278.5 29.5,278.5C 29.5,285.5 29.5,292.5 29.5,299.5C 39.5,299.5 49.5,299.5 59.5,299.5C 59.5,292.5 59.5,285.5 59.5,278.5C 69.5,278.5 79.5,278.5 89.5,278.5C 89.5,286.167 89.5,293.833 89.5,301.5C 59.5,301.5 29.5,301.5 -0.5,301.5C -0.5,293.833 -0.5,286.167 -0.5,278.5 Z"/></g>
<g><path style="opacity:0.974" fill="#fe9200" d="M 153.5,278.5 C 165.167,278.5 176.833,278.5 188.5,278.5C 184.335,286.836 179.668,294.836 174.5,302.5C 163.167,301.833 151.833,301.167 140.5,300.5C 144.333,292.829 148.666,285.496 153.5,278.5 Z"/></g>
<g><path style="opacity:1" fill="#fe9200" d="M 240.5,278.5 C 250.5,278.5 260.5,278.5 270.5,278.5C 270.5,286.167 270.5,293.833 270.5,301.5C 260.5,301.5 250.5,301.5 240.5,301.5C 240.5,293.833 240.5,286.167 240.5,278.5 Z"/></g>
<g><path style="opacity:1" fill="#fe9200" d="M 421.5,278.5 C 431.5,278.5 441.5,278.5 451.5,278.5C 451.5,285.5 451.5,292.5 451.5,299.5C 461.5,299.5 471.5,299.5 481.5,299.5C 481.5,292.5 481.5,285.5 481.5,278.5C 491.5,278.5 501.5,278.5 511.5,278.5C 511.5,286.167 511.5,293.833 511.5,301.5C 481.5,301.5 451.5,301.5 421.5,301.5C 421.5,293.833 421.5,286.167 421.5,278.5 Z"/></g>
<g><path style="opacity:0.972" fill="#fe8c00" d="M 140.5,300.5 C 151.833,301.167 163.167,301.833 174.5,302.5C 170.667,310.171 166.334,317.504 161.5,324.5C 149.655,324.828 137.988,324.495 126.5,323.5C 130.417,315.325 135.083,307.659 140.5,300.5 Z"/></g>
<g><path style="opacity:0.997" fill="#fe8c00" d="M -0.5,301.5 C 29.5,301.5 59.5,301.5 89.5,301.5C 89.6662,307.842 89.4995,314.175 89,320.5C 87.5,324.667 84.6667,327.5 80.5,329C 56.5,329.667 32.5,329.667 8.5,329C 4.31481,327.312 1.31481,324.479 -0.5,320.5C -0.5,314.167 -0.5,307.833 -0.5,301.5 Z"/></g>
<g><path style="opacity:0.977" fill="#fe8c00" d="M 240.5,301.5 C 250.5,301.5 260.5,301.5 270.5,301.5C 270.414,302.496 270.748,303.329 271.5,304C 282.529,307.866 290.529,315.033 295.5,325.5C 269.167,324.833 242.833,324.167 216.5,323.5C 221.549,313.954 229.216,307.454 239.5,304C 240.252,303.329 240.586,302.496 240.5,301.5 Z"/></g>
<g><path style="opacity:0.975" fill="#fe8c00" d="M 371.5,301.5 C 376.403,308.964 381.07,316.631 385.5,324.5C 373.5,324.5 361.5,324.5 349.5,324.5C 344.666,317.504 340.333,310.171 336.5,302.5C 347.988,301.505 359.655,301.172 371.5,301.5 Z"/></g>
<g><path style="opacity:0.997" fill="#fe8c00" d="M 421.5,301.5 C 451.5,301.5 481.5,301.5 511.5,301.5C 511.5,307.833 511.5,314.167 511.5,320.5C 509.685,324.479 506.685,327.312 502.5,329C 478.5,329.667 454.5,329.667 430.5,329C 426.333,327.5 423.5,324.667 422,320.5C 421.5,314.175 421.334,307.842 421.5,301.5 Z"/></g>
<g><path style="opacity:0.979" fill="#fe8700" d="M 216.5,323.5 C 242.833,324.167 269.167,324.833 295.5,325.5C 299.659,332.145 301.325,339.478 300.5,347.5C 290.167,347.5 279.833,347.5 269.5,347.5C 269.6,338.027 264.934,333.027 255.5,332.5C 247,332.744 242.333,337.077 241.5,345.5C 231.425,347.438 221.091,348.105 210.5,347.5C 209.703,338.688 211.703,330.688 216.5,323.5 Z"/></g>
<g><path style="opacity:0.977" fill="#fe8700" d="M 126.5,323.5 C 137.988,324.495 149.655,324.828 161.5,324.5C 158.345,330.139 155.179,335.806 152,341.5C 151.51,342.793 151.343,344.127 151.5,345.5C 141.425,347.438 131.091,348.105 120.5,347.5C 119.703,338.688 121.703,330.688 126.5,323.5 Z"/></g>
<g><path style="opacity:0.977" fill="#fe8700" d="M 349.5,324.5 C 361.5,324.5 373.5,324.5 385.5,324.5C 389.527,331.614 391.194,339.28 390.5,347.5C 380.167,347.5 369.833,347.5 359.5,347.5C 359.662,345.473 359.495,343.473 359,341.5C 355.821,335.806 352.655,330.139 349.5,324.5 Z"/></g>
<g><path style="opacity:0.967" fill="#fe7f00" d="M 151.5,345.5 C 151.16,349.131 151.994,352.464 154,355.5C 159.049,361.71 163.883,368.043 168.5,374.5C 155.788,373.854 143.455,374.52 131.5,376.5C 124.111,368.344 120.444,358.678 120.5,347.5C 131.091,348.105 141.425,347.438 151.5,345.5 Z"/></g>
<g><path style="opacity:0.976" fill="#fd7e00" d="M 241.5,345.5 C 241.4,354.973 246.066,359.973 255.5,360.5C 264,360.256 268.667,355.923 269.5,347.5C 279.833,347.5 290.167,347.5 300.5,347.5C 299.335,368.323 289.001,382.49 269.5,390C 239.969,395.993 220.469,384.826 211,356.5C 210.502,353.518 210.335,350.518 210.5,347.5C 221.091,348.105 231.425,347.438 241.5,345.5 Z"/></g>
<g><path style="opacity:0.972" fill="#fe8000" d="M 359.5,347.5 C 369.833,347.5 380.167,347.5 390.5,347.5C 390.948,358.834 387.281,368.501 379.5,376.5C 367.701,374.84 355.701,373.84 343.5,373.5C 347.783,367.377 352.283,361.377 357,355.5C 358.707,353.091 359.54,350.425 359.5,347.5 Z"/></g>
<g><path style="opacity:0.975" fill="#fd7900" d="M 168.5,374.5 C 174.257,381.683 179.257,389.35 183.5,397.5C 171.5,397.5 159.5,397.5 147.5,397.5C 141.45,391.078 136.117,384.078 131.5,376.5C 143.455,374.52 155.788,373.854 168.5,374.5 Z"/></g>
<g><path style="opacity:0.978" fill="#fd7900" d="M 343.5,373.5 C 355.701,373.84 367.701,374.84 379.5,376.5C 374.883,384.078 369.55,391.078 363.5,397.5C 351.5,397.5 339.5,397.5 327.5,397.5C 331.844,388.804 337.177,380.804 343.5,373.5 Z"/></g>
<g><path style="opacity:0.973" fill="#fd7300" d="M 147.5,397.5 C 159.5,397.5 171.5,397.5 183.5,397.5C 188.541,404.914 192.541,412.914 195.5,421.5C 184.321,421.172 173.321,421.505 162.5,422.5C 157.755,414.009 152.755,405.676 147.5,397.5 Z"/></g>
<g><path style="opacity:0.972" fill="#fd7300" d="M 327.5,397.5 C 339.5,397.5 351.5,397.5 363.5,397.5C 358.245,405.676 353.245,414.009 348.5,422.5C 338.013,421.506 327.346,421.172 316.5,421.5C 316.5,420.5 316.5,419.5 316.5,418.5C 319.406,411.019 323.072,404.019 327.5,397.5 Z"/></g>
<g><path style="opacity:0.973" fill="#fd6d00" d="M 316.5,418.5 C 316.5,419.5 316.5,420.5 316.5,421.5C 327.346,421.172 338.013,421.506 348.5,422.5C 344.912,429.93 341.912,437.597 339.5,445.5C 328.833,444.833 318.167,444.167 307.5,443.5C 309.702,434.786 312.702,426.453 316.5,418.5 Z"/></g>
<g><path style="opacity:0.975" fill="#fd6d00" d="M 195.5,421.5 C 199.334,428.664 202,436.33 203.5,444.5C 192.752,444.809 182.085,444.476 171.5,443.5C 168.714,436.495 165.714,429.495 162.5,422.5C 173.321,421.505 184.321,421.172 195.5,421.5 Z"/></g>
<g><path style="opacity:0.978" fill="#fd6600" d="M 171.5,443.5 C 182.085,444.476 192.752,444.809 203.5,444.5C 206.246,453.217 208.246,462.217 209.5,471.5C 199.085,471.192 188.751,471.525 178.5,472.5C 176.552,462.763 174.218,453.096 171.5,443.5 Z"/></g>
<g><path style="opacity:0.97" fill="#fd6600" d="M 307.5,443.5 C 318.167,444.167 328.833,444.833 339.5,445.5C 336.648,454.123 334.315,462.79 332.5,471.5C 322.085,471.808 311.751,471.475 301.5,470.5C 302.993,461.367 304.993,452.367 307.5,443.5 Z"/></g>
<g><path style="opacity:0.989" fill="#fd5f00" d="M 301.5,470.5 C 311.751,471.475 322.085,471.808 332.5,471.5C 331.861,478.148 331.527,484.814 331.5,491.5C 330.596,492.209 330.263,493.209 330.5,494.5C 280.095,494.828 229.762,494.495 179.5,493.5C 179.498,486.48 179.165,479.48 178.5,472.5C 188.751,471.525 199.085,471.192 209.5,471.5C 209.616,474.86 209.949,478.193 210.5,481.5C 240.5,481.5 270.5,481.5 300.5,481.5C 300.942,477.846 301.276,474.179 301.5,470.5 Z"/></g>
<g><path style="opacity:0.994" fill="#fd5b00" d="M 331.5,491.5 C 332.351,500.465 329.018,507.132 321.5,511.5C 277.5,511.5 233.5,511.5 189.5,511.5C 182.576,507.666 179.243,501.666 179.5,493.5C 229.762,494.495 280.095,494.828 330.5,494.5C 330.263,493.209 330.596,492.209 331.5,491.5 Z"/></g>
</svg>
